Coordinates
version=1
nRows=14
nColumns=36
inDegrees=yes

Units are S.I. units (second, meters, Newtons, ...)
If the header above contains a line with 'inDegrees', this indicates whether rotational values are in degrees (yes) or radians (no).

endheader
time	pelvis_tilt	pelvis_list	pelvis_rotation	pelvis_tx	pelvis_ty	pelvis_tz	hip_flexion_r	hip_adduction_r	hip_rotation_r	knee_angle_r	knee_angle_r_beta	ankle_angle_r	subtalar_angle_r	mtp_angle_r	hip_flexion_l	hip_adduction_l	hip_rotation_l	knee_angle_l	knee_angle_l_beta	ankle_angle_l	subtalar_angle_l	mtp_angle_l	lumbar_extension	lumbar_bending	lumbar_rotation	arm_flex_r	arm_add_r	arm_rot_r	elbow_flex_r	pro_sup_r	arm_flex_l	arm_add_l	arm_rot_l	elbow_flex_l	pro_sup_l
      3.43333330	    -37.48001118	     -1.60946808	    -12.25468926	      0.71540294	      0.58918223	      0.14949206	    100.64836500	     10.59128642	    -18.30454703	     95.87816171	      1.67338960	     38.85721586	      5.61809872	     -7.49999987	    119.16851399	    -14.66283920	     17.04144555	     57.91006474	      1.01072130	     11.34007224	      4.16011701	     -7.49999987	     -9.64142381	     11.17812111	     16.24533535	     66.99560335	     -4.83970051	     75.82702427	    122.78746660	    107.97009258	     70.00967708	      5.00270863	     64.86779054	    117.72989130	    111.90419217
      3.45000000	    -37.50021513	     -1.45766964	    -12.27776091	      0.70854850	      0.59472952	      0.14735266	    100.61233137	     10.74940865	    -18.02988284	     95.39761159	      1.66500242	     38.46288202	      5.53094302	     -7.49999987	    118.96697004	    -14.79549685	     16.52254193	     57.54766440	      1.00439622	     11.20134514	      4.30752939	     -7.49999987	     -9.39371974	     10.88750104	     16.01958970	     67.30600787	     -5.53435507	     75.07010586	    123.20971281	    108.28973748	     70.42023461	      4.95702565	     64.60418737	    118.05009529	    111.97179097
      3.46666670	    -37.54213051	     -1.37343858	    -12.28903531	      0.70803502	      0.59906398	      0.14670367	    100.53664174	     10.82939255	    -17.85227603	     94.83571814	      1.65519553	     38.06164754	      5.58864155	     -7.49999987	    118.68136393	    -14.84586341	     16.12869968	     56.98633820	      0.99459923	     10.93084258	      4.39323852	     -7.49999987	     -9.15226748	     10.77176125	     16.05614547	     67.44795925	     -5.82234469	     74.77369168	    123.34700596	    108.55716879	     70.57106245	      5.35405414	     64.60651410	    118.44710376	    111.93641317
      3.48333330	    -37.25629904	     -1.50322218	    -12.33596296	      0.71615301	      0.60117102	      0.14886199	     99.96811834	     11.11105704	    -17.74882568	     94.30332022	      1.64590343	     37.88590311	      5.70453454	     -7.49999987	    118.19950205	    -14.98925654	     15.95769275	     56.73349267	      0.99018624	     10.90853831	      4.47943087	     -7.49999987	     -8.93753021	     10.74636919	     16.00363543	     66.42922863	     -5.54183533	     75.47027308	    123.58373047	    108.61162190	     69.85511597	      5.83597078	     64.84396507	    118.82530977	    111.91866500
      3.50000000	    -37.22233538	     -1.51876028	    -12.25814822	      0.71662234	      0.60446623	      0.14942017	     99.69049440	     11.30821323	    -17.50371564	     93.81712892	      1.63741779	     37.57360983	      5.42146521	     -7.49999987	    117.95170979	    -15.06023734	     15.72068205	     56.64840756	      0.98870123	     11.07923121	      4.61790286	     -7.49999987	     -8.27951827	     10.88797386	     15.66984469	     66.07784443	     -5.70347095	     76.53294892	    123.04787045	    108.31877944	     69.43475674	      5.57964612	     64.51504212	    119.04596162	    111.98686298
      3.51666670	    -37.17279511	     -1.57144663	    -12.19323732	      0.71620964	      0.61008757	      0.14877159	     99.28485211	     11.51195757	    -17.24547805	     93.22348140	      1.62705669	     37.46961634	      5.48296407	     -7.49999987	    117.62125235	    -15.14848280	     15.50905630	     56.44492480	      0.98514978	     11.13507034	      4.53732305	     -7.49999987	     -7.86451510	     10.87647264	     15.58050195	     66.19960429	     -5.59781599	     76.53225747	    123.29907951	    108.33844582	     69.31855528	      5.59064827	     64.64773958	    119.05650835	    111.98084665
      3.53333330	    -36.89382309	     -1.40946302	    -12.06209821	      0.71612434	      0.61266612	      0.14842388	     98.75313544	     11.66958618	    -16.72827479	     92.67460905	      1.61747706	     37.14499590	      5.22986246	     -7.49999987	    116.88620556	    -15.23750210	     14.98943029	     55.95135097	      0.97653530	     10.87629808	      4.42599471	     -7.49999987	     -7.56471653	     10.38338960	     15.14628991	     66.38638798	     -5.14402004	     75.45906940	    124.73016522	    109.51602716	     69.74284026	      5.99583871	     65.09440629	    119.50747473	    111.86692322
      3.55000000	    -36.64092306	     -1.41428043	    -12.00094966	      0.71713790	      0.61696776	      0.14868804	     98.19920155	     11.88180880	    -16.34366825	     92.17761598	      1.60880290	     37.00160575	      5.04033819	     -7.49999987	    116.38040753	    -15.31447337	     14.75139174	     55.85535595	      0.97485987	     10.87301563	      4.49737065	     -7.49999987	     -7.28137929	     10.28890813	     14.39025384	     66.28929807	     -4.45062475	     74.69123073	    124.57537486	    109.42165823	     69.66054242	      5.99191420	     63.69325783	    120.53460948	    112.01970284
      3.56666670	    -36.40847096	     -1.45821980	    -11.85865618	      0.71758180	      0.62285882	      0.14868669	     97.59374368	     12.07212506	    -15.89284349	     91.61003866	      1.59889680	     36.88202505	      4.84580375	     -7.49999987	    115.86723096	    -15.30220556	     14.63286092	     55.84381978	      0.97465852	     10.88734216	      4.46370660	     -7.49999987	     -7.21523636	     10.19742249	     13.88206776	     65.97631699	     -4.40042802	     75.04661048	    124.59706579	    109.51849058	     69.57179219	      5.88685584	     63.52028310	    120.71818144	    111.64041420
      3.58333330	    -36.26337218	     -1.48685303	    -11.66971564	      0.71771111	      0.63009984	      0.14868174	     96.93802516	     12.21688258	    -15.42966773	     90.82753662	      1.58523957	     36.74537162	      4.65929591	     -7.49999987	    115.23404645	    -15.20721932	     14.52078319	     55.55473880	      0.96961311	     10.87006384	      4.28644832	     -7.49999987	     -7.36765685	     10.07341181	     13.73758703	     65.90369623	     -4.87839254	     75.62735339	    124.18000686	    109.60570772	     69.29767895	      6.02813296	     64.11446692	    120.06063137	    111.59049596
      3.60000000	    -36.22891148	     -1.49244053	    -11.44984655	      0.71793792	      0.63651234	      0.14859428	     96.35942891	     12.32372943	    -14.95208285	     90.01162519	      1.57099922	     36.64619492	      4.55833058	     -7.49999987	    114.62773238	    -15.06346011	     14.42286696	     55.13152693	      0.96222667	     10.71954865	      4.08913246	     -7.49999987	     -7.25080775	      9.79601052	     13.64449970	     65.67899235	     -5.52800476	     75.93270291	    123.76414681	    109.79509463	     69.59349153	      6.26269376	     64.90551713	    119.16355641	    111.69231251
      3.61666670	    -36.22450403	     -1.48348153	    -11.29224181	      0.71872235	      0.64381375	      0.14851650	     95.76240098	     12.44282439	    -14.48943852	     89.14809799	      1.55592783	     36.59493795	      4.60582010	     -7.49999987	    114.05675841	    -15.01651226	     14.25995541	     54.76720845	      0.95586811	     10.71163189	      4.04678819	     -7.49999987	     -6.95836672	      9.72767044	     13.32573510	     66.03257852	     -5.56516791	     75.56130713	    123.63885644	    109.58986809	     69.61788502	      6.50398102	     64.91352130	    119.12383180	    111.41603488
      3.63333330	    -35.54916725	     -1.30891968	    -10.90845981	      0.71861977	      0.65316180	      0.14809302	     94.55637627	     12.42616103	    -13.67595011	     88.25706787	      1.54037642	     36.10069038	      4.11580438	     -7.49999987	    112.66117710	    -14.81233875	     13.73902780	     54.10976685	      0.94439359	     10.30551572	      3.74326919	     -7.49999987	     -7.31460982	      9.27466656	     12.48675468	     65.93850929	     -4.83374194	     74.79162930	    123.72955964	    109.55880032	     69.65381589	      6.57985455	     63.97571923	    119.41515732	    111.09635678
      3.65000000	    -35.03895494	     -1.27807969	    -10.67176334	      0.71904902	      0.65810348	      0.14830429	     93.46295122	     12.56562178	    -13.10495367	     87.33196338	      1.52423030	     35.85120932	      3.99700163	     -7.49999987	    111.58306701	    -14.76806891	     13.40956306	     53.63779867	      0.93615619	     10.12465586	      3.62071291	     -7.49999987	     -7.49204909	      9.16003045	     11.62500523	     65.75294173	     -4.32712004	     74.08485560	    123.47775052	    110.46191049	     69.57088432	      6.21949162	     63.25122109	    120.19784550	    111.53487579
